<?xml version="1.0" encoding="utf-8"?>
<!-- Generator: Adobe Illustrator 29.2.0, SVG Export Plug-In . SVG Version: 9.03 Build 55982)  -->
<svg version="1.0" id="Layer_1" xmlns="http://www.w3.org/2000/svg" xmlns:xlink="http://www.w3.org/1999/xlink" x="0px" y="0px"
	 viewBox="0 0 300 71.3" style="enable-background:new 0 0 300 71.3;" xml:space="preserve">
<style type="text/css">
	.st0{fill:#1F9DD9;}
	.st1{fill:#566371;}
	.st2{fill:#FFFFFF;}
	.st3{fill:#D2E7EF;}
	.st4{fill:#DBA8CD;}
	.st5{fill:#8E4D86;}
	.st6{fill:#F8EDF5;}
</style>
<g>
	<path class="st0" d="M28.4,17.8H1.8C0.8,17.8,0,17,0,16v-5.7c0-5.5,4.5-10,10-10h70.4c1,0,1.8,0.8,1.8,1.8v10.2
		c0,3-2.5,5.5-5.5,5.5H54c-1,0-1.8,0.8-1.8,1.8v49.5c0,1.1-0.9,1.9-1.9,1.9H32.1c-1.1,0-1.9-0.9-1.9-1.9V19.6
		C30.2,18.6,29.4,17.8,28.4,17.8"/>
	<path class="st0" d="M141.4,71c-1.6,0-3-0.8-3.8-2.2l-28.1-49.3l0.6,47.2c0,2.3-1.9,4.2-4.2,4.2H92.8c-2.3,0-4.2-1.9-4.2-4.2V4.9
		c0-2.5,2-4.5,4.5-4.5h25.3c1.6,0,3.1,0.9,3.9,2.3l24,41.6l24-41.6c0.8-1.4,2.3-2.3,3.9-2.3h25.3c2.5,0,4.5,2,4.5,4.5v61.9
		c0,2.3-1.9,4.2-4.2,4.2h-13.2c-2.3,0-4.2-1.9-4.2-4.2l0.6-47.2l-28.1,49.3c-0.8,1.4-2.2,2.2-3.8,2.2H141.4z"/>
	<path class="st0" d="M287,35.5c9.7-2.6,11.5-5.2,11.5-15.6c0-17-6.1-19.9-41-19.9c-9.3,0-16.1,0.1-20.8,0.5
		c-9.5,0.5-15,2.2-18.6,5.2c-3.4,2.9-4.3,6-4.8,15.2c-0.1,2.1,1.5,3.8,3.6,3.8h16.4c1,0,1.9-0.9,1.8-1.9c0-0.3,0-0.6,0-0.8
		c0-2.9-0.2-4.8,2.5-5.7c2.5-1,2.5-1,18.2-1.2c15.2,0.4,15.2,0.4,17.9,1.4c2.4,1,3.4,3.1,3.4,6c0,3-0.6,4.1-2.6,5.2
		c-1.3,0.6-5.7,1.2-10.4,1.2h-15c-1,0-1.8,0.8-1.8,1.8v11c0,1,0.8,1.8,1.8,1.8h16c6.1,0,9-0.1,10.6,0.7c2.2,1.1,3.4,2.6,3.4,5.8
		c0,3.5-1.3,5.6-4.2,6.4c-2.2,0.5-8.2,0.8-19.3,0.8c-15.5,0-19.8-0.3-21-4.9c-2.9,4.7-7.1,11.6-10.2,16.6c-0.3,0.5,0,1.2,0.6,1.4
		c5,1.1,13.2,1.4,31.5,1.4c19.3,0,26.6,0.3,31.6-1c9.3-2.4,12.1-8.1,12.1-18.3C300,40.9,297.8,38.1,287,35.5"/>
	<path class="st1" d="M221,67.4c3.9-6.5,9.1-15,13-21.3h-17.8c-2,0-3.7,1.6-3.7,3.6c0,0.4,0,0.7,0,0.9c0,12.3,5.1,16,7.2,17.2
		C220.1,68,220.7,67.9,221,67.4"/>
</g>
</svg>
