<svg viewBox="0 0 449 121" fill="none" xmlns="http://www.w3.org/2000/svg">
<path d="M245.425 33.4882C245.425 27.4467 249.926 22.9453 255.968 22.9453C262.009 22.9453 266.511 27.4467 266.511 33.4882C266.511 39.5298 262.009 44.0311 255.968 44.0311C249.926 44.0311 245.425 39.5298 245.425 33.4882Z" fill="#F76C5E"/>
<path d="M417.215 33.4882C417.215 27.4467 421.716 22.9453 427.758 22.9453C433.799 22.9453 438.301 27.4467 438.301 33.4882C438.301 39.5298 433.799 44.0311 427.758 44.0311C421.716 44.0311 417.215 39.5298 417.215 33.4882Z" fill="#F76C5E"/>
<path d="M418.396 52.5244H437.139V114.263H418.396V52.5244Z" fill="#2B465A"/>
<path d="M265.34 52.5244H246.597V114.263H265.34V52.5244Z" fill="#2B465A"/>
<path d="M347.287 115.869V115.89C345.313 115.901 343.502 115.803 341.81 115.63C343.946 115.825 345.877 115.869 347.287 115.869Z" fill="#2B465A"/>
<path d="M341.341 115.576C341.19 115.576 341.027 115.554 340.875 115.543V115.521C341.027 115.543 341.19 115.565 341.341 115.576Z" fill="#2B465A"/>
<path d="M290.993 23.6504V84.1854C290.993 93.4701 297.186 98.4595 304.453 98.4595C312.534 98.4595 317.643 92.3963 317.643 85.129C317.643 76.9181 311.178 71.2562 302.024 71.2562H295.331V51.4611H303.64C323.836 51.4611 338.642 65.4641 338.642 85.1182C338.642 104.772 323.836 118.515 304.171 118.515C284.506 118.515 270.243 105.054 270.243 85.1182V23.6504H290.982H290.993Z" fill="#2B465A"/>
<path d="M363.839 23.6504V84.1854C363.839 93.4701 370.032 98.4595 377.299 98.4595C385.38 98.4595 390.489 92.3963 390.489 85.129C390.489 76.9181 384.024 71.2562 374.87 71.2562H368.806V51.4611H376.475C396.671 51.4611 411.477 65.4641 411.477 85.1182C411.477 104.772 396.671 118.515 377.006 118.515C357.341 118.515 343.078 105.054 343.078 85.1182V23.6504H363.817H363.839Z" fill="#2B465A"/>
<path d="M141.84 51.8947H162.448L175.204 81.6578L190.151 51.7754H195.943L210.889 81.6578L223.905 51.8947H243.234L214.762 115.022H209.219L192.732 82.9486L176.245 115.022H170.573L141.84 51.8947Z" fill="#2B465A"/>
<path fill-rule="evenodd" clip-rule="evenodd" d="M131.836 83.6602V110.495C131.836 114.94 128.222 118.574 123.777 118.574H73.193V102.396H88.1327H114.257C115.049 102.396 115.678 101.767 115.678 100.975V84.3707C115.678 59.3425 95.6635 38.6177 71.0616 38.1508H70.1888C45.0997 38.1508 24.6997 58.5509 24.6997 83.6399V92.8149H8.54199V84.6345C8.54199 83.3963 8.58259 82.1581 8.66378 80.9199H8.66114L8.66378 80.8793C10.5516 48.564 37.0006 22.4803 69.2347 21.9932H70.2091C104.189 21.9932 131.856 49.6601 131.856 83.6602H131.836ZM8.66114 80.9199C8.58171 82.1446 8.54199 83.3693 8.54199 84.594V80.9199H8.66114ZM99.4392 92.8349V80.3107L99.438 80.3101L99.3986 80.2904V79.6814C99.0738 63.9703 86.2248 51.101 70.4529 50.8169H69.9657C53.6862 50.8169 40.4516 64.3154 40.4516 80.9196L40.3298 118.573H56.6092V80.3107C56.6092 72.9626 62.5973 66.9745 69.9454 66.9745C70.3717 66.9745 70.7979 66.9948 71.2242 67.0557C77.9836 67.6647 83.2816 73.6527 83.2816 80.6558V92.8349H99.4392ZM92.4353 92.8354C91.7046 92.9369 90.9941 92.9369 90.3242 92.8354H92.4353ZM8.54199 102.619H24.4967V118.574H8.54199V102.619Z" fill="#F76C5E"/>
</svg>
